<svg width="48" height="49" viewBox="0 0 48 49" fill="none" xmlns="http://www.w3.org/2000/svg">
<path d="M14.6666 9.83337H10.6666C10.313 9.83337 9.97382 9.97385 9.72378 10.2239C9.47373 10.4739 9.33325 10.8131 9.33325 11.1667V37.8334C9.33325 38.187 9.47373 38.5261 9.72378 38.7762C9.97382 39.0262 10.313 39.1667 10.6666 39.1667H14.6666V9.83337Z" fill="#EFB8C8"/>
<path d="M17.3333 39.1667H30.6666V9.83337H17.3333V39.1667ZM23.9999 33.8334C23.6463 33.8334 23.3072 33.6929 23.0571 33.4429C22.8071 33.1928 22.6666 32.8537 22.6666 32.5C22.6666 32.1464 22.8071 31.8073 23.0571 31.5572C23.3072 31.3072 23.6463 31.1667 23.9999 31.1667C24.3535 31.1667 24.6927 31.3072 24.9427 31.5572C25.1928 31.8073 25.3333 32.1464 25.3333 32.5C25.3333 32.8537 25.1928 33.1928 24.9427 33.4429C24.6927 33.6929 24.3535 33.8334 23.9999 33.8334ZM23.9999 15.1667C24.3535 15.1667 24.6927 15.3072 24.9427 15.5572C25.1928 15.8073 25.3333 16.1464 25.3333 16.5C25.3333 16.8537 25.1928 17.1928 24.9427 17.4429C24.6927 17.6929 24.3535 17.8334 23.9999 17.8334C23.6463 17.8334 23.3072 17.6929 23.0571 17.4429C22.8071 17.1928 22.6666 16.8537 22.6666 16.5C22.6666 16.1464 22.8071 15.8073 23.0571 15.5572C23.3072 15.3072 23.6463 15.1667 23.9999 15.1667ZM23.9999 23.1667C24.3535 23.1667 24.6927 23.3072 24.9427 23.5572C25.1928 23.8073 25.3333 24.1464 25.3333 24.5C25.3333 24.8537 25.1928 25.1928 24.9427 25.4429C24.6927 25.6929 24.3535 25.8334 23.9999 25.8334C23.6463 25.8334 23.3072 25.6929 23.0571 25.4429C22.8071 25.1928 22.6666 24.8537 22.6666 24.5C22.6666 24.1464 22.8071 23.8073 23.0571 23.5572C23.3072 23.3072 23.6463 23.1667 23.9999 23.1667Z" fill="#F9DEDC"/>
<path d="M37.3333 9.83337H33.3333V39.1667H37.3333C37.6869 39.1667 38.026 39.0262 38.2761 38.7762C38.5261 38.5261 38.6666 38.187 38.6666 37.8334V11.1667C38.6666 10.8131 38.5261 10.4739 38.2761 10.2239C38.026 9.97385 37.6869 9.83337 37.3333 9.83337Z" fill="white"/>
</svg>
