<svg width="48" height="49" viewBox="0 0 48 49" fill="none" xmlns="http://www.w3.org/2000/svg">
<path d="M19.9999 21.8334H10.6666C10.313 21.8334 9.97382 21.6929 9.72378 21.4429C9.47373 21.1928 9.33325 20.8537 9.33325 20.5V11.1667C9.33325 10.8131 9.47373 10.4739 9.72378 10.2239C9.97382 9.97385 10.313 9.83337 10.6666 9.83337H19.9999C20.3535 9.83337 20.6927 9.97385 20.9427 10.2239C21.1928 10.4739 21.3333 10.8131 21.3333 11.1667V20.5C21.3333 20.8537 21.1928 21.1928 20.9427 21.4429C20.6927 21.6929 20.3535 21.8334 19.9999 21.8334Z" fill="#EFB8C8"/>
<path d="M19.9999 39.1667H10.6666C10.313 39.1667 9.97382 39.0263 9.72378 38.7762C9.47373 38.5262 9.33325 38.187 9.33325 37.8334V28.5001C9.33325 28.1465 9.47373 27.8073 9.72378 27.5573C9.97382 27.3072 10.313 27.1667 10.6666 27.1667H19.9999C20.3535 27.1667 20.6927 27.3072 20.9427 27.5573C21.1928 27.8073 21.3333 28.1465 21.3333 28.5001V37.8334C21.3333 38.187 21.1928 38.5262 20.9427 38.7762C20.6927 39.0263 20.3535 39.1667 19.9999 39.1667Z" fill="#EFB8C8"/>
<path d="M25.3333 11.1667H38.6666V13.8334H25.3333V11.1667Z" fill="white"/>
<path d="M38.6666 28.5H25.3333V31.1667H38.6666V28.5Z" fill="white"/>
<path d="M38.6666 35.1667H25.3333V37.8334H38.6666V35.1667Z" fill="#F9DEDC"/>
<path d="M38.6666 17.8334H25.3333V20.5H38.6666V17.8334Z" fill="#F9DEDC"/>
</svg>
