<svg width="48" height="49" viewBox="0 0 48 49" fill="none" xmlns="http://www.w3.org/2000/svg">
<g clip-path="url(#clip0_199_62)">
<path d="M36.0001 40.5H24.0001C23.6465 40.5 23.3073 40.3595 23.0573 40.1094C22.8072 39.8594 22.6667 39.5202 22.6667 39.1666V36.5C22.6667 36.1463 22.8072 35.8072 23.0573 35.5571C23.3073 35.3071 23.6465 35.1666 24.0001 35.1666H36.0001C36.3537 35.1666 36.6928 35.3071 36.9429 35.5571C37.1929 35.8072 37.3334 36.1463 37.3334 36.5V39.1666C37.3334 39.5202 37.1929 39.8594 36.9429 40.1094C36.6928 40.3595 36.3537 40.5 36.0001 40.5Z" fill="#F9DEDC"/>
<path d="M36.0001 8.5H12.0001C11.6465 8.5 11.3073 8.64047 11.0573 8.89052C10.8072 9.14057 10.6667 9.47971 10.6667 9.83333V12.5C10.6667 12.8536 10.8072 13.1928 11.0573 13.4428C11.3073 13.6929 11.6465 13.8333 12.0001 13.8333H36.0001C36.3537 13.8333 36.6928 13.6929 36.9429 13.4428C37.1929 13.1928 37.3334 12.8536 37.3334 12.5V9.83333C37.3334 9.47971 37.1929 9.14057 36.9429 8.89052C36.6928 8.64047 36.3537 8.5 36.0001 8.5Z" fill="white"/>
<path d="M36.0001 16.5H12.0001C11.6465 16.5 11.3073 16.6405 11.0573 16.8905C10.8072 17.1406 10.6667 17.4797 10.6667 17.8333V31.1667C10.6667 31.5203 10.8072 31.8594 11.0573 32.1095C11.3073 32.3595 11.6465 32.5 12.0001 32.5H36.0001C36.3537 32.5 36.6928 32.3595 36.9429 32.1095C37.1929 31.8594 37.3334 31.5203 37.3334 31.1667V17.8333C37.3334 17.4797 37.1929 17.1406 36.9429 16.8905C36.6928 16.6405 36.3537 16.5 36.0001 16.5Z" fill="#EFB8C8"/>
</g>
<defs>
<clipPath id="clip0_199_62">
<rect width="32" height="32" fill="white" transform="translate(8 8.5)"/>
</clipPath>
</defs>
</svg>
